<svg xmlns="http://www.w3.org/2000/svg" fill="none" viewBox="0 0 48 48"><path fill="currentColor" fill-rule="evenodd" d="M12.751 3v1.865C12.751 3 12.753 3 12.754 3h.046a2.541 2.541 0 0 1 .213.014c.116.01.26.03.431.062.345.064.798.182 1.36.392.996.374 2.327 1.038 3.996 2.218a42.007 42.007 0 0 1 14.01 0c1.669-1.18 3-1.844 3.996-2.218a8.211 8.211 0 0 1 1.36-.392 4.767 4.767 0 0 1 .584-.073L38.81 3h.026L38.848 3h.008c.002 0 .003 0 .003 1.865V3c.86 0 1.609.588 1.812 1.424.527 2.163.585 4.41.176 6.593a11.94 11.94 0 0 1 1.742 6.961c-.029 6.571-4.792 10.614-10.035 11.74.636 1.6.886 3.341.71 5.083v7.36a1.865 1.865 0 1 1-3.73 0v-7.459c0-.068.005-.137.012-.205a7.086 7.086 0 0 0-1.476-5.168 1.865 1.865 0 0 1 1.465-3.018c4.897 0 9.324-3.199 9.324-8.392 0-.04.001-.08.004-.12a8.211 8.211 0 0 0-1.52-5.322 1.865 1.865 0 0 1-.296-1.526 11.93 11.93 0 0 0 .31-3.663c-.735.354-1.726.93-2.974 1.866-.419.314-.95.438-1.466.34a38.268 38.268 0 0 0-14.224 0 1.865 1.865 0 0 1-1.466-.34c-1.261-.946-2.26-1.524-2.998-1.878-.094 1.22.015 2.449.327 3.645.14.536.034 1.107-.29 1.557a8.211 8.211 0 0 0-1.519 5.32 1.9 1.9 0 0 1 .004.12c0 5.194 4.427 8.393 9.324 8.393a1.865 1.865 0 0 1 1.46 3.026 6.928 6.928 0 0 0-1.25 2.424 7.111 7.111 0 0 0-.221 2.732c.008.07.011.14.011.21v7.459a1.865 1.865 0 1 1-3.73 0v-7.36a10.838 10.838 0 0 1 .351-4.058c.1-.35.216-.693.35-1.029-5.239-1.128-9.995-5.17-10.024-11.736a11.941 11.941 0 0 1 1.733-6.949 14.762 14.762 0 0 1 .192-6.636A1.865 1.865 0 0 1 12.75 3Z" clip-rule="evenodd"/><path fill="currentColor" fill-rule="evenodd" d="M5 32.865C5 31.835 5.835 31 6.865 31c1.614 0 2.802.829 3.65 1.561.358.31.715.657 1.033.967l.166.161c.379.367.725.693 1.088.984.706.565 1.415.947 2.297 1.063.897.119 2.18-.01 4.064-.846a1.865 1.865 0 0 1 1.512 3.41c-2.322 1.029-4.307 1.366-6.063 1.134-1.771-.233-3.101-1.017-4.141-1.85-.51-.409-.963-.84-1.352-1.216l-.189-.183c-.32-.312-.586-.57-.854-.802-.636-.55-.96-.653-1.211-.653A1.865 1.865 0 0 1 5 32.865Z" clip-rule="evenodd"/></svg>