<svg xmlns="http://www.w3.org/2000/svg" fill="none" viewBox="0 0 48 48"><path fill="currentColor" fill-rule="evenodd" d="M5.808 7.808A13 13 0 0 1 15 4c1.96 0 3.746.28 5.494 1.041 1.225.534 2.37 1.278 3.506 2.238 1.136-.96 2.28-1.704 3.506-2.238C29.254 4.281 31.04 4 33 4a13 13 0 0 1 13 13c0 5.484-3.619 9.506-6.593 12.421L25.414 43.414a2 2 0 0 1-2.828 0L8.598 29.426C5.588 26.516 2 22.5 2 17a13 13 0 0 1 3.808-9.192ZM15 8a9 9 0 0 0-9 9c0 3.694 2.401 6.673 5.39 9.562l.024.024L24 39.172l12.586-12.586.014-.014c2.985-2.925 5.4-5.9 5.4-9.572a9 9 0 0 0-9-9c-1.56 0-2.774.22-3.896.709-1.136.494-2.304 1.32-3.69 2.705a2 2 0 0 1-2.828 0c-1.386-1.386-2.554-2.21-3.69-2.705C17.774 8.219 16.56 8 15 8Z" clip-rule="evenodd"/></svg>