<svg xmlns="http://www.w3.org/2000/svg" fill="none" viewBox="0 0 48 48">
  <g clip-path="url(#a)">
    <path fill="currentColor" fill-rule="evenodd" d="M7.494 9.44A11.963 11.963 0 0 1 15.9 6c1.782 0 3.414.252 5.016.94 1.08.465 2.089 1.104 3.084 1.92.995-.816 2.004-1.455 3.084-1.92C28.686 6.253 30.318 6 32.1 6c3.148 0 6.172 1.235 8.406 3.44A11.717 11.717 0 0 1 44 17.779c0 4.984-3.33 8.62-6.002 11.208L25.405 41.423a2 2 0 0 1-2.81 0L10.007 28.99C7.3 26.406 4 22.775 4 17.778c0-3.132 1.26-6.13 3.494-8.337ZM15.9 10a7.963 7.963 0 0 0-5.595 2.287A7.717 7.717 0 0 0 8 17.777c0 3.173 2.089 5.761 4.781 8.332l.024.024L24 37.189l11.195-11.056.014-.015C37.9 23.515 40 20.931 40 17.778c0-2.055-.826-4.03-2.305-5.491A7.963 7.963 0 0 0 32.1 10c-1.386 0-2.454.193-3.435.615-.994.428-2.025 1.144-3.26 2.364a2 2 0 0 1-2.81 0c-1.235-1.22-2.266-1.936-3.26-2.364-.982-.422-2.049-.615-3.435-.615Z" clip-rule="evenodd"/>
  </g>
  <defs>
    <clipPath id="a">
      <path fill="currentColor" d="M0 0h48v48H0z"/>
    </clipPath>
  </defs>
</svg>
