<svg xmlns="http://www.w3.org/2000/svg" fill="none" viewBox="0 0 77 12"><path fill="#010202" d="M.3 5.61C.58 4.225 1.815 3.255 3.577 3.255c2.044 0 3.612.832 3.612 3.55v5.022H5.462l-.211-1.074c-.6.727-1.41 1.212-2.643 1.212-1.463 0-2.608-.9-2.608-2.562C0 7.74 1.515 6.649 3.665 6.649h1.427v-.38c0-.953-.722-1.247-1.515-1.247-.6 0-1.216.19-1.48.97L.3 5.61Zm2.784 4.59c.969 0 1.973-.642 1.973-1.732v-.156h-1.41c-.916-.035-1.462.329-1.462 1.056a.862.862 0 0 0 .899.831ZM41.513 5.61c.282-1.385 1.515-2.355 3.277-2.355 2.044 0 3.613.832 3.613 3.55v5.022h-1.727l-.212-1.074c-.599.727-1.41 1.212-2.643 1.212-1.462 0-2.607-.9-2.607-2.562 0-1.663 1.515-2.754 3.665-2.754h1.427v-.38c0-.953-.723-1.247-1.516-1.247-.599 0-1.215.19-1.48.97l-1.797-.382Zm2.784 4.59c.97 0 1.974-.642 1.974-1.732v-.156h-1.41c-.916 0-1.463.329-1.463 1.073.018.381.318.814.899.814ZM50.323 11.844V3.377h2.114v1.385c.6-1.004 1.569-1.507 2.538-1.507.387 0 .687.052 1.04.156l-.388 1.922a1.59 1.59 0 0 0-.881-.242c-1.234 0-2.309 1.004-2.309 3.723v2.995l-2.114.035ZM60.525 3.255c.881 0 1.71.433 2.097.9V0h2.114v11.861h-2.114v-.865C62.375 11.429 61.6 12 60.525 12c-2.59 0-3.911-1.749-3.911-4.346 0-2.615 1.321-4.399 3.911-4.399Zm.3 6.944c1.092 0 1.973-.9 1.973-2.563 0-1.68-.88-2.562-1.973-2.562s-1.974.9-1.974 2.562c-.017 1.68.864 2.563 1.974 2.563ZM72.383 4.606 71.115 5.75a1.811 1.811 0 0 0-1.427-.727c-.406 0-.793.242-.793.71 0 .38.3.64.828.813 1.18.433 3.101.78 3.101 2.598 0 1.541-1.18 2.805-3.048 2.805-1.78 0-2.996-1.247-3.419-2.268l1.674-.9c.3.813.881 1.402 1.727 1.402.652 0 1.075-.295 1.075-.918 0-.71-1.093-.866-2.15-1.299-.934-.38-1.727-.97-1.727-2.268 0-1.299 1.075-2.459 2.75-2.459 1.127-.017 2.149.554 2.677 1.368ZM28.316 3.394l-1.516 5.8-1.462-5.8h-1.974l-1.445 5.8-1.198-3.376-.14.416-.688 2.164 1.093 3.446h1.885l1.48-5.454 1.48 5.454H27.7l2.749-8.45h-2.132ZM38.535 3.394l-1.533 5.8-1.462-5.8h-1.974l-1.427 5.8-1.216-3.376-.14.416-.688 2.164 1.11 3.446h1.868l1.48-5.454 1.48 5.454h1.868l2.766-8.45h-2.132ZM20.245 3.394l-2.748 8.433h-1.868l-1.48-5.455-1.48 5.49H10.8L8.052 3.428h2.15l1.533 5.783 1.463-5.783h1.955l1.463 5.783 1.533-5.783 2.096-.035ZM75.573 9.126c.828 0 1.427.588 1.427 1.402s-.6 1.403-1.427 1.403c-.828 0-1.427-.589-1.427-1.403 0-.814.616-1.402 1.427-1.402Z"/></svg>