<svg xmlns="http://www.w3.org/2000/svg" fill="none" viewBox="0 0 51 15"><path fill="#fff" d="M47.69 6.442h-3.004v-3.11c0-.415-.235-.775-.565-.968a1.095 1.095 0 0 0-.523-.138H33.522c-.262 0-.51.097-.703.25a1.327 1.327 0 0 0-.358.373l-3.419 6.358-3.086-6.07a1.098 1.098 0 0 0-.386-.607c-.317-.29-.8-.373-1.213-.18a1.088 1.088 0 0 0-.606.858l-3.225 6-3.211-6.331a1.045 1.045 0 0 0-.537-.525 1.198 1.198 0 0 0-.496-.125H8.136a.96.96 0 0 0-.524.138c-.345.18-.565.553-.565.968v3.11H4.03c-.606 0-1.089.484-1.089 1.091 0 .608.483 1.092 1.089 1.092h3.005v3.014c0 .607.482 1.091 1.088 1.091.606 0 1.088-.483 1.088-1.091V8.626h5.196c.607 0 1.089-.484 1.089-1.092 0-.607-.482-1.091-1.088-1.091H9.21V4.424h6.423l3.846 7.561a.842.842 0 0 0 .096.194c.29.483.896.691 1.42.428.317-.152.537-.456.592-.774l3.252-6.041 3.142 6.192a.844.844 0 0 0 .097.194c.29.483.896.691 1.42.428.316-.152.536-.456.591-.774l3.983-7.423h8.394v2.018h-7.277c-.592 0-1.06.47-1.088 1.05v4.092c0 .607.482 1.091 1.088 1.091h8.035c.11.042.235 0 .359 0 .606 0 1.088-.483 1.088-1.091V8.61h3.005c.606 0 1.088-.483 1.088-1.091.016-.58-.48-1.077-1.073-1.077Zm-5.195 4.05h-6.23V8.64h6.23v1.852Z"/><path fill="#000" d="M43.584 2.24a.96.96 0 0 1 .523.137c.345.18.565.553.565.968v3.11h3.005c.606 0 1.088.483 1.088 1.091s-.482 1.092-1.088 1.092h-3.005v2.958c0 .608-.482 1.092-1.088 1.092h-8.366a1.084 1.084 0 0 1-1.089-1.092V7.491c.028-.58.51-1.05 1.089-1.05h7.276V4.422h-8.393l-3.983 7.423a1.094 1.094 0 0 1-1.061.885c-.372 0-.744-.193-.937-.539a.845.845 0 0 1-.096-.193L24.88 5.806l-3.183 6.054c-.138.319-.345.608-.662.775a1.073 1.073 0 0 1-1.406-.429.842.842 0 0 1-.096-.193l-3.846-7.561H9.265V6.47h5.196c.607 0 1.089.483 1.089 1.091s-.482 1.092-1.089 1.092H9.265v3.013c0 .608-.482 1.092-1.088 1.092a1.084 1.084 0 0 1-1.088-1.092V8.654h-3.06A1.084 1.084 0 0 1 2.94 7.562c0-.608.483-1.091 1.089-1.091h3.005V3.36c0-.415.234-.775.564-.968.152-.083.331-.138.524-.138h8.145c.179 0 .345.041.496.124a.998.998 0 0 1 .537.525l3.225 6.345 3.225-6.055c.165-.332.248-.636.606-.802.151-.069.317-.11.468-.11.276 0 .538.096.731.29.193.152.29.263.428.525l3.046 6.152 3.418-6.359c.082-.151.206-.276.358-.373.193-.152.428-.25.704-.25h10.075m-7.318 8.225h6.23V8.64h-6.23v1.852ZM43.584 0H33.509c-.731 0-1.447.25-2.027.692-.4.276-.73.649-.964 1.064l-.028.055-1.392 2.599S27.485 1.23 27.003.843a3.326 3.326 0 0 0-2.178-.815c-.496 0-.992.11-1.447.332-.868.414-1.35 1.189-1.75 2.087L20.581 4.41l-1.282-2.517A3.314 3.314 0 0 0 17.714.346a3.303 3.303 0 0 0-1.447-.332H8.122c-.551 0-1.102.138-1.585.4A3.332 3.332 0 0 0 4.8 3.347v.87h-.772A3.329 3.329 0 0 0 .706 7.548a3.328 3.328 0 0 0 3.322 3.332H4.8v.774a3.329 3.329 0 0 0 3.322 3.332 3.328 3.328 0 0 0 3.322-3.332v-.774h2.95c.633 0 1.24-.18 1.75-.497l1.31 2.57a3.329 3.329 0 0 0 3.06 2.032c.495.001.991-.11 1.446-.33.813-.388 1.516-1.051 1.874-1.894l.951-2.115 1.186 2.322A3.329 3.329 0 0 0 29.03 15c.496 0 .992-.11 1.446-.332a3.394 3.394 0 0 0 1.654-1.797 3.337 3.337 0 0 0 3.088 2.074h8.366c1.833 0 3.322-1.438 3.322-3.276v-.774h.772A3.329 3.329 0 0 0 51 7.563a3.329 3.329 0 0 0-3.322-3.332h-.772v-.87c0-1.231-.661-2.35-1.737-2.931A3.06 3.06 0 0 0 43.584 0Z"/></svg>