<svg xmlns="http://www.w3.org/2000/svg" fill="none" class="Fowl___StyledSvg4-sc-qrlxw7-3 bsLjwh" viewBox="0 0 120 104">
  <path fill="#fff" d="m112.81 43.932.621-.075a3.974 3.974 0 0 0 2.883-1.794 3.973 3.973 0 0 0 .465-3.365l-1.674-5.375a4.01 4.01 0 0 0-4.2-2.793c-.341.033-.68.112-1.004.23L93.266 36.91l9.649-6.867a3.97 3.97 0 0 0 1.675-2.962 4 4 0 0 0-1.206-3.177l-4.055-3.915a4.005 4.005 0 0 0-4.379-.789c.311-.825.341-1.737.075-2.602a4.016 4.016 0 0 0-2.296-2.503l-4.39-1.8a4.017 4.017 0 0 0-1.89-.278 4.021 4.021 0 0 0-3.394 2.655l-4.37 12.45-2.968-11.668c-.55-2.152-2.4-3.511-4.5-3.31-.22.02-.446.062-.67.118-1.806.458-3.3 1.85-4.101 3.822-.455 1.12-.656 2.357-.602 3.655a5.138 5.138 0 0 0-.763.144l-1.265.32c-1.382.351-2.417 1.11-3.022 2.128-.79-.47-1.732-.684-2.76-.586-.29.028-.589.084-.904.165l-1.269.32c-1.348.345-2.394 1.08-3.019 2.127-.786-.47-1.731-.684-2.76-.585a6.442 6.442 0 0 0-.916.162l-1.257.323c-1.351.345-2.397 1.08-3.021 2.132-.625 1.047-.773 2.317-.43 3.67l.038.136a10.404 10.404 0 0 0-3.933-.368c-.556.054-1.14.157-1.734.307a11.029 11.029 0 0 0-3.517 1.57 5.214 5.214 0 0 0-.377-.795c.462-.879.575-1.9.312-2.936l-.37-1.447c-.64-2.537-2.365-3.35-3.7-3.59-1.123-.2-2.42-.142-3.785.192-3.396.864-6.815 3.544-6.69 8.511a4.48 4.48 0 0 0-.982 1.108c-.651 1.065-.808 2.356-.459 3.723l.19.751v.004c.468 1.835 1.665 3.09 3.257 3.495l1.183 4.647c.21.814.635 1.666 1.294 2.345-.108.057-.211.118-.31.186-.682-.4-1.482-.6-2.33-.565-.816.028-1.657.288-2.444.745a10.147 10.147 0 0 0-4.168-.74 9.713 9.713 0 0 0-5.131 1.613l-.097-2.6c-.044-1.229-.532-2.333-1.371-3.111-.802-.75-1.872-1.136-3.016-1.092-.098.001-.202.012-.298.02-3.058.292-6.206 3.388-6.011 8.546L.47 62.944c.11 2.853 2.1 4.695 4.958 4.588l1.267-.047c.14-.002.28-.015.403-.027 1.41-.136 2.556-.764 3.293-1.744 1.76 1.298 3.946 1.966 6.274 1.876a9.729 9.729 0 0 0 4.124-1.05c.826.4 1.68.592 2.508.559.093-.001.186-.01.271-.019a4.192 4.192 0 0 0 2.298-.938c.734.378 1.598.557 2.55.52l1.272-.047c.144-.003.276-.015.403-.027 1.539-.148 2.755-.89 3.482-2.016.868 1.157 2.276 1.81 4.006 1.742l1.263-.043a8.4 8.4 0 0 0 2.817 3.745c1.9 1.432 4.387 2.138 7.202 2.036.276-.015.547-.033.814-.059 4.94-.473 8.444-3.599 9.003-7.815 1.588 1.065 3.472 1.579 5.5 1.5a8.962 8.962 0 0 0 3.882-1.015c.806.383 1.639.565 2.46.537 1.42-.047 2.627-.755 3.343-1.827 1.718 1.189 3.828 1.798 6.09 1.71a10.204 10.204 0 0 0 4.078-1.051c.774.375 1.577.567 2.356.562 1.483 3.587 5.218 5.722 9.933 5.547.272-.014.544-.032.81-.058 4.713-.452 8.118-3.31 8.909-7.229 1.582.75 3.399 1.114 5.335 1.041 2.37-.11 4.559-.675 5.849-1.54.965-.643 2.098-1.886 2.011-4.169l-.051-1.388a5.642 5.642 0 0 0-.027-.367c.592-.826.885-1.875.838-3.053-.191-4.96-2.97-8.478-7.187-9.447l.002.001Z"/>
  <path fill="#000" d="m73.7 33.93 1.263-.322c.912-.232 1.145-.69.924-1.555L71.89 16.356c-.143-.561-.471-.776-.916-.663-1.38.35-2.607 2.482-1.85 5.453l3.02 11.86c.22.866.643 1.157 1.555.924ZM28.397 45.464l1.264-.32c.912-.233 1.144-.69.924-1.556l-1.9-7.463 2.268-.578c.866-.22 1.157-.642.924-1.555l-.19-.749c-.233-.912-.69-1.144-1.556-.924l-2.268.578-.131-.514c-.405-1.59.265-2.285 1.295-2.547.554-.14.95-.15 1.284-.159.246-.005.459-.01.676-.066.305-.078.555-.266.436-.734l-.37-1.45c-.173-.678-.355-.906-.93-1.01-.808-.142-1.72-.01-2.305.14-2.69.684-4.848 2.778-3.77 7.012l.072.281-.983.25c-.865.22-1.156.643-.924 1.555l.191.749c.232.912.69 1.144 1.555.924l.983-.25 1.9 7.462c.22.866.642 1.157 1.555.925ZM67.061 24.236c-.221-.865-.643-1.156-1.555-.923l-1.264.32c-.912.233-1.145.69-.925 1.556l1.138 4.468c.512 2.013.179 3.343-1.296 3.718-1.473.375-2.403-.634-2.915-2.645l-1.138-4.468c-.232-.913-.69-1.145-1.555-.924l-1.263.32c-.865.221-1.156.644-.924 1.556l1.138 4.469c.512 2.012.178 3.342-1.296 3.717-1.473.375-2.403-.634-2.915-2.645l-1.138-4.469c-.232-.912-.69-1.144-1.555-.924l-1.263.322c-.866.22-1.156.642-.925 1.555l1.216 4.772c1.006 3.954 3.52 5.903 6.89 5.046 2.525-.643 3.521-1.818 3.965-3.5 1.194 1.265 2.631 1.821 5.158 1.178 3.368-.858 4.644-3.774 3.638-7.727l-1.215-4.772ZM6.882 45.534c-1.423.053-3.069 1.88-2.953 4.943l.463 12.23c.033.892.386 1.266 1.327 1.23l1.303-.05c.94-.035 1.263-.434 1.23-1.327l-.613-16.186c-.022-.578-.298-.858-.757-.841ZM23.12 50.717c-.651.025-1.546.614-2.183 1.653-.857-.933-2.53-1.715-4.459-1.643-3.763.143-6.283 3.113-6.141 6.876.144 3.81 2.832 6.535 6.644 6.391 1.93-.073 3.537-.98 4.321-1.975.714.987 1.652 1.507 2.303 1.483.459-.018.737-.317.715-.897l-.418-11.047c-.022-.579-.323-.858-.78-.84l-.002-.001Zm-2.87 6.51c.073 1.906-1.206 3.21-2.871 3.274-1.689.064-3.063-1.14-3.135-3.046-.072-1.905 1.207-3.21 2.896-3.274 1.664-.063 3.039 1.141 3.11 3.047ZM34.136 50.057c-1.543.059-3.135.771-4.103 2.015-.715-1.036-1.653-1.555-2.328-1.53-.459.017-.737.317-.715.897l.393 10.396c.034.893.387 1.266 1.327 1.23l1.303-.049c.94-.035 1.263-.434 1.23-1.327l-.172-4.535c-.042-1.11.192-1.94.63-2.488.462-.573 1.175-.89 1.995-.92.868-.033 1.53.232 1.986.77.43.515.653 1.303.697 2.461l.17 4.511c.036.94.435 1.264 1.328 1.23l1.303-.05c.892-.033 1.265-.385 1.23-1.327l-.176-4.631c-.092-2.436-.631-3.914-1.664-5.034-1.032-1.096-2.552-1.691-4.434-1.62v.001ZM55.331 48.844c-.217.008-.456.09-.763.271-.97.568-1.519.71-2.34.74-1.23.047-1.87-.291-3.993-.21-3.594.136-5.804 2.393-5.693 5.313.054 1.423.777 2.676 2.046 3.642-1.585.882-2.48 2.751-2.412 4.56.127 3.353 2.936 5.446 6.964 5.294 4.077-.154 6.671-2.45 6.545-5.804-.069-1.81-1.104-3.63-2.75-4.365 1.143-1.058 1.819-2.364 1.765-3.787a3.817 3.817 0 0 0-.425-1.651c1.333-.534 1.894-1.642 1.845-2.945-.023-.627-.258-1.077-.789-1.058Zm-9.065 6.19c-.051-1.351.879-2.305 2.278-2.358 1.423-.053 2.398.827 2.45 2.178.048 1.255-.95 2.307-2.278 2.358-1.302.049-2.402-.923-2.45-2.178Zm5.604 7.639c.052 1.399-1.183 2.58-2.848 2.644-1.689.064-2.985-.998-3.039-2.42-.058-1.52 1.063-2.578 2.847-2.645 1.785-.067 2.983.925 3.04 2.421ZM68.947 49.223l-1.302.05c-.94.034-1.263.433-1.23 1.326l.17 4.487c.047 1.23-.164 2.06-.627 2.609-.415.498-1.08.813-1.827.842-.748.028-1.336-.191-1.763-.61-.526-.511-.798-1.298-.853-2.77l-.165-4.366c-.035-.941-.434-1.264-1.327-1.23l-1.302.048c-.893.034-1.266.387-1.23 1.327l.18 4.728c.092 2.461.76 4.151 1.96 5.216 1 .88 2.349 1.41 4.012 1.346 1.665-.063 3.086-.817 4.007-1.988.715 1.012 1.652 1.532 2.304 1.508.458-.018.736-.319.715-.897l-.394-10.397c-.034-.893-.386-1.266-1.327-1.23v.001ZM85.5 48.355c-.652.024-1.548.614-2.184 1.652-.857-.933-2.529-1.715-4.459-1.643-3.763.143-6.284 3.113-6.141 6.876.144 3.812 2.832 6.536 6.643 6.391 1.93-.073 3.538-.98 4.322-1.975.714.987 1.651 1.507 2.302 1.483.458-.018.737-.318.715-.897l-.418-11.047c-.022-.579-.322-.858-.78-.84Zm-2.87 6.51c.072 1.905-1.207 3.21-2.872 3.273-1.688.064-3.063-1.14-3.135-3.046-.072-1.905 1.208-3.21 2.896-3.274 1.665-.063 3.039 1.141 3.111 3.047ZM101.927 47.08c-.217.01-.456.09-.763.271-.969.569-1.519.71-2.34.74-1.23.047-1.87-.29-3.993-.21-3.595.136-5.804 2.394-5.693 5.313.053 1.423.778 2.676 2.046 3.643-1.585.881-2.48 2.75-2.412 4.56.128 3.353 2.936 5.445 6.965 5.293 4.077-.155 6.671-2.451 6.544-5.804-.069-1.81-1.104-3.63-2.75-4.365 1.143-1.058 1.819-2.364 1.765-3.787a3.815 3.815 0 0 0-.425-1.65c1.332-.535 1.894-1.643 1.845-2.946-.024-.626-.258-1.078-.788-1.057h-.001Zm-9.067 6.19c-.05-1.351.88-2.304 2.279-2.357 1.423-.053 2.398.827 2.45 2.178.047 1.254-.952 2.306-2.279 2.357-1.303.049-2.402-.924-2.45-2.178Zm5.604 7.639c.053 1.4-1.183 2.581-2.847 2.644-1.688.065-2.985-.998-3.038-2.421-.058-1.52 1.061-2.577 2.847-2.645 1.784-.067 2.982.926 3.038 2.422ZM109.595 47.2c-3.618.138-6.183 3.206-6.045 6.873.16 4.221 3.363 6.516 7.247 6.369 2.171-.082 3.552-.618 4.046-.95.425-.282.484-.647.465-1.13l-.053-1.399c-.021-.578-.388-.686-.678-.674-.458.017-1.351.678-3.522.76-2.051.079-3.268-.817-3.65-1.962l7.478-.284c.965-.036 1.216-.433 1.185-1.252-.15-3.957-2.42-6.503-6.473-6.35Zm-2.307 5.402c.17-1.238 1.03-2.116 2.478-2.171 1.519-.058 2.326.806 2.515 1.982l-4.993.19ZM88.705 43.257l23.882-2.83a.502.502 0 0 0 .42-.65l-1.674-5.378a.502.502 0 0 0-.654-.322l-22.207 8.208c-.559.207-.358 1.042.234.972h-.001ZM80.864 41.176l19.594-13.943a.504.504 0 0 0 .058-.771l-4.05-3.916a.503.503 0 0 0-.73.032L80.193 40.436c-.39.45.186 1.085.671.74h.001ZM80.222 35.085l10.972-16.974a.503.503 0 0 0-.232-.738l-4.379-1.8a.503.503 0 0 0-.666.3l-6.592 18.773c-.198.562.573.94.896.439h.001Z"/>
  <g style="transform:rotate(222.216deg);transform-origin:40.8381px 40.4388px">
    <path fill="#F9F9F9" d="M38.43 46.161a6.209 6.209 0 1 0 4.816-11.445 6.209 6.209 0 0 0-4.816 11.445Z"/>
    <path fill="#000" fill-rule="evenodd" d="M47.495 43.24a7.223 7.223 0 1 1-13.314-5.603 7.223 7.223 0 0 1 13.314 5.603Zm-.934-.393a6.209 6.209 0 1 1-11.446-4.817 6.209 6.209 0 0 1 11.446 4.817Z" clip-rule="evenodd"/>
    <path fill="#BBB" d="M40.08 38.76a.329.329 0 0 1 .367.265l.003.017.28 2.042a.329.329 0 0 1-.65.106l-.003-.017-.279-2.042a.329.329 0 0 1 .281-.37ZM38.21 36.256a.329.329 0 0 1 .05.45l-.01.013-1.331 1.574a.329.329 0 0 1-.513-.411l.01-.014 1.331-1.573a.329.329 0 0 1 .464-.04ZM44.11 37.158a.329.329 0 0 1-.413.186l-.017-.006-1.908-.779a.329.329 0 0 1 .233-.615l.016.006 1.908.78c.168.068.249.26.18.428ZM37.54 42.394a.329.329 0 0 1-.365.547l-.014-.01-1.683-1.188a.329.329 0 0 1 .365-.546l.014.009 1.684 1.188ZM44.866 40.291a.329.329 0 0 1 .367.546l-.015.01-1.002.637a.329.329 0 0 1-.368-.546l.015-.01 1.003-.636Z"/>
    <path fill="#3D3D3D" fill-rule="evenodd" d="M46.374 37.628c.654 1.29.857 2.8.5 4.268l-1.912-.805a.576.576 0 0 1-.35-.579l.177-2.104a.576.576 0 0 1 .442-.513l1.143-.267ZM41.69 34.287l.641 1.745a.575.575 0 0 1-.184.65l-1.66 1.306a.576.576 0 0 1-.677.026l-1.755-1.176a.576.576 0 0 1-.233-.635l.395-1.393a6.208 6.208 0 0 1 3.473-.523ZM35.92 39.443l.409 2.072a.576.576 0 0 1-.284.614l-.995.556a6.19 6.19 0 0 1-.23-3.774l.603.072c.248.03.448.215.496.46Z" clip-rule="evenodd"/>
    <path fill="#BBB" fill-rule="evenodd" d="m43.498 45.141.013.01.678.515a6.24 6.24 0 0 1-.625.351l-.45-.342a.329.329 0 0 1 .384-.534ZM40.022 44.817a.329.329 0 0 1 .187.413l-.007.016-.528 1.293a6.216 6.216 0 0 1-.645-.16l.564-1.382a.329.329 0 0 1 .43-.18Z" clip-rule="evenodd"/>
    <path fill="#3D3D3D" fill-rule="evenodd" d="m40.767 40.992 1.9.92c.225.109.354.35.32.597L42.7 44.6a.576.576 0 0 1-.469.489l-2.079.373a.576.576 0 0 1-.609-.295l-.997-1.862a.576.576 0 0 1 .092-.67l1.463-1.524a.576.576 0 0 1 .666-.12Z" clip-rule="evenodd"/>
  </g>
  <mask id="a" width="18" height="11" x="32" y="39" maskUnits="userSpaceOnUse">
    <path fill="#D9D9D9" d="M32.785 39.952h16.603v9.457H32.785z"/>
  </mask>
  <g mask="url(#a)">
    <path fill="#000" fill-rule="evenodd" d="M40.771 47.518c3.947 0 7.146-3.246 7.146-7.25 0-.19-.007-.378-.021-.564A7.25 7.25 0 1 1 33.653 40.9c.316 3.708 3.382 6.618 7.118 6.618ZM33.653 40.9a7.437 7.437 0 0 1-.027-.633c0-4.004 3.2-7.25 7.145-7.25 3.76 0 6.841 2.946 7.125 6.687A7.251 7.251 0 0 0 33.653 40.9Z" clip-rule="evenodd"/>
  </g>
  <path fill="#fff" d="M92.658 82c0-3.163 2.36-5.392 5.49-5.392 3.127 0 5.488 2.23 5.488 5.392 0 3.163-2.361 5.392-5.489 5.392-3.128 0-5.489-2.26-5.489-5.392Zm7.88 0c0-1.476-.915-2.56-2.361-2.56-1.446 0-2.361 1.084-2.361 2.56s.915 2.56 2.36 2.56c1.447 0 2.362-1.054 2.362-2.56Zm-9.946-2.5c.207.422.295.874.295 1.355 0 1.145-.59 2.2-1.534 3.013 1.298.632 2.066 2.168 2.066 3.614 0 2.71-2.155 4.518-5.43 4.518-3.276 0-5.43-1.777-5.43-4.518a4.036 4.036 0 0 1 2.065-3.614c-.974-.814-1.535-1.868-1.535-3.013 0-2.38 1.83-4.126 4.722-4.126 1.712 0 2.214.301 3.188.301.649.03 1.328-.15 1.888-.512.207-.12.413-.21.65-.21.383 0 .59.39.59.873a2.247 2.247 0 0 1-1.535 2.319Zm-2.213 7.892c0-1.205-.915-2.049-2.361-2.049-1.446 0-2.361.814-2.361 2.049 0 1.144 1.003 2.048 2.36 2.048 1.358 0 2.362-.904 2.362-2.048Zm-4.28-6.356a1.927 1.927 0 0 0 1.978 1.868c1.003-.03 1.77-.844 1.83-1.868 0-1.084-.768-1.837-1.89-1.837-1.12 0-1.917.723-1.917 1.837Zm-4.957 1.175v3.765c0 .723-.266 1.024-1.033 1.024h-1.033c-.767 0-1.033-.301-1.033-1.024V82.3c0-.933-.148-1.596-.472-2.018a1.871 1.871 0 0 0-1.564-.693c-.62-.03-1.21.241-1.624.693-.354.422-.59 1.085-.59 1.988v3.675c0 .753-.325 1.024-1.033 1.024h-1.033c-.708 0-1.033-.271-1.033-1.024v-8.434c0-.482.236-.693.59-.693.532 0 1.27.452 1.83 1.326a4.453 4.453 0 0 1 3.335-1.506c1.505 0 2.715.542 3.512 1.445.797.904 1.18 2.139 1.18 4.127Zm-16.114-8.494c0-.964.797-1.717 1.712-1.717h.059c.915.06 1.623.874 1.564 1.807-.059.934-.856 1.657-1.77 1.597-.886-.03-1.565-.783-1.565-1.687Zm.207 12.259v-7.922c0-.723.265-1.054 1.033-1.054H65.3c.767 0 1.032.301 1.032 1.054v7.922c0 .723-.265 1.024-1.032 1.024h-1.033c-.768 0-1.033-.301-1.033-1.024Zm-5.46 0v-9.94c0-2.5 1.358-3.915 2.509-3.915.354 0 .59.24.59.692v13.163c0 .753-.295 1.024-1.033 1.024h-1.033c-.708 0-1.033-.271-1.033-1.024ZM45.026 82c0-3.163 2.36-5.392 5.49-5.392 3.127 0 5.488 2.23 5.488 5.392 0 3.163-2.36 5.392-5.489 5.392-3.128 0-5.489-2.26-5.489-5.392Zm7.85 0c0-1.476-.915-2.56-2.36-2.56-1.447 0-2.362 1.084-2.362 2.56s.915 2.56 2.361 2.56c1.446 0 2.361-1.054 2.361-2.56Zm-9.444-3.946v8.434c0 .482-.236.693-.59.693-.531 0-1.269-.452-1.8-1.296a4.158 4.158 0 0 1-3.276 1.476 4.5 4.5 0 0 1-3.187-1.204c-.915-.904-1.417-2.29-1.417-4.278v-3.825c0-.723.266-1.054 1.033-1.054h1.033c.767 0 1.033.301 1.033 1.054v3.554c0 1.205.207 1.838.59 2.26.354.36.886.572 1.387.542.561 0 1.092-.211 1.476-.633.383-.422.59-1.084.59-2.108v-3.615c0-.753.325-1.054 1.033-1.054h1.033c.738 0 1.062.301 1.062 1.054Zm-12.395-5.24v13.674c0 .482-.236.693-.59.693-.531 0-1.269-.452-1.8-1.265-.65.783-1.977 1.476-3.512 1.476-3.07 0-5.135-2.29-5.135-5.392 0-3.102 2.125-5.392 5.135-5.392 1.003 0 1.977.302 2.833.874v-1.446c0-2.5 1.387-3.915 2.509-3.915.354 0 .56.24.56.692ZM27.968 82c0-1.536-1.062-2.56-2.39-2.56s-2.42 1.024-2.42 2.56 1.062 2.56 2.42 2.56c1.357 0 2.39-.994 2.39-2.56Z"/>
</svg>
