<svg xmlns="http://www.w3.org/2000/svg" fill="none" viewBox="0 0 173 31">
  <path fill="currentColor" fill-rule="evenodd" d="M113.048 19.145c.718 0 1.356.272 1.945.644l-.001-9.322c-.59.395-1.228.644-1.945.644h-10.614V9.152h14.018c.69 0 1.33.274 1.917.645V.5H82.894c.613.496 1.176 1.117 1.176 1.934v26.155c0 .794-.563 1.414-1.176 1.91h35.476V20.21c-.589.346-1.229.62-1.918.62h-14.018v-1.686h10.614Zm27.981 5.355h7.85l1.689 4.24c.077.199.104.397.104.62 0 .397-.104.769-.256 1.14H173c-.46-.398-.768-.793-.974-1.34l-10.64-25.214c-.256-.595-.459-1.24-.459-1.909 0-.545.23-1.041.459-1.537h-29.233c.232.47.435.967.435 1.512 0 .645-.203 1.314-.435 1.934L122.51 29.16a3.642 3.642 0 0 1-.896 1.339h18.085c-.18-.322-.308-.645-.308-1.017a1.578 1.578 0 0 1 .077-.496l1.561-4.487Zm-91.232 4.064V19.49l5.5 9.075c.204.323.409.72.409 1.117 0 .262-.18.504-.344.728l-.065.089H79.9c-.92-.471-1.66-1.09-2.199-1.934l-10.23-15.668L74.89 2.459A6.034 6.034 0 0 1 77.14.5H56.013l.03.064c.147.304.302.628.302.952 0 .348-.152.67-.332.943l-6.215 9.024V2.46c0-.843.537-1.438 1.151-1.959H29.541c.588.545 1.151 1.117 1.151 1.959v26.105c0 .818-.563 1.413-1.151 1.933h21.407c-.613-.52-1.15-1.115-1.15-1.933ZM21.92.5H0c.589.521 1.125 1.09 1.125 1.934v26.131c0 .818-.536 1.414-1.125 1.934h21.919c-.614-.52-1.151-1.116-1.151-1.934V2.434c0-.844.537-1.413 1.15-1.934Zm120.581 18L145 14l2.5 4.5h-5Z" clip-rule="evenodd"/>
</svg>
