<svg xmlns="http://www.w3.org/2000/svg" fill="none" viewBox="0 0 166 108">
  <path fill="currentColor" d="M53.195 107.832c-4.326 0-8.109-1.789-11.235-5.314-2.414-2.719-4.215-6.32-5.074-10.145a27.994 27.994 0 0 1-.64-7.45c.171-3.703 1.006-7.123 2.477-10.168 1.674-3.464 4.26-6.286 7.477-8.158a12.936 12.936 0 0 1 6.596-1.788c.438 0 .887.022 1.335.064 3.567.33 6.654 1.81 9.174 4.4 2.059 2.115 3.605 4.53 4.47 6.985a25.406 25.406 0 0 1 1.344 6.314c.03.379.088 1.42.108 1.805-1.07 0-7.749.005-10.883.005H47.497v.139c-.047 3.436.266 6.166.981 8.594.84 2.847 1.35 3.71 2.486 5.286 1.197 1.659 3.079 2.614 5.44 2.764.26.016.521.024.776.024 3.769 0 6.693-1.844 8.693-5.477.899-1.633 1.533-3.452 1.885-5.407.025-.136.039-.26.05-.352.743.092 1.092.133 1.258.152-.008.059-.016.13-.03.208-.386 2.467-.948 4.652-1.724 6.679-.823 2.151-1.987 4.17-3.373 5.842-2.356 2.847-5.326 4.491-8.832 4.887-.636.072-1.275.109-1.915.111h.003Zm.75-24.657c1.567 0 3.116 0 4.24.006h.142v-.142a287.358 287.358 0 0 1-.013-4.09v-1.431h-.006c0-.435 0-.87.003-1.304.005-1.096.008-2.23-.011-3.345-.022-1.312-.2-2.279-.635-3.45-.485-1.31-1.22-2.204-2.245-2.733-.75-.385-1.615-.573-2.649-.573h-.186c-1.929.039-3.325.906-4.145 2.578-.757 1.542-.923 2.888-.937 4.433-.028 3.131-.017 9.846-.017 9.913v.138h.139s3.192-.006 6.32-.006v.006Zm24.793 23.945c-.139 0-.28 0-.418-.005a7.824 7.824 0 0 1-3.598-.986c-2.843-1.6-4.428-3.887-4.705-6.798-.297-3.11.645-5.715 2.804-7.744 1.305-1.227 2.782-2.285 4.212-3.306l.302-.216c.91-.65 1.84-1.299 2.741-1.927 1.799-1.255 3.659-2.55 5.427-3.913.903-.695 2.056-1.65 2.978-2.882.937-1.249 1.409-2.659 1.406-4.195-.003-1.304-.089-3.016-.718-4.682-.806-2.132-2.084-3.373-3.907-3.8a9.092 9.092 0 0 0-2.07-.251c-1.8 0-3.362.642-4.648 1.907-1.394 1.374-1.597 3.714-.454 5.214.174.229.353.455.534.679.244.304.5.623.732.944 1.164 1.609 1.416 3.367.754 5.228-.513 1.442-1.575 2.356-3.151 2.716-.423.1-.855.15-1.289.152-1.208 0-2.289-.437-3.21-1.301-.917-.861-1.479-1.983-1.667-3.331-.516-3.69.676-6.878 3.538-9.47 2.156-1.952 4.889-3.19 8.353-3.78a23.461 23.461 0 0 1 3.93-.337c1.427 0 2.854.138 4.246.412 2.466.485 4.39 1.421 5.883 2.86 1.23 1.186 2.059 2.648 2.533 4.472.288 1.111.43 2.315.43 3.683.006 8.052.006 16.104 0 24.156 0 .894.072 2.057.637 3.123.493.931 1.432 1.509 2.453 1.509.476-.001.943-.13 1.352-.373.518-.311.903-.781 1.211-1.484.357-.815.524-1.739.524-2.911.002-6.83 0-13.661 0-20.492v-8.88a6.875 6.875 0 0 0-.161-1.515c-.399-1.725-1.524-2.713-3.348-2.932a10.543 10.543 0 0 0-.804-.07l-.132-.005v-.479c.171.008.454.008.922.008h13.125c0 .167.006.433.006.515v8.29c0 8.357 0 16.714.003 25.07 0 1.562.343 2.827 1.05 3.868.798 1.177 1.867 1.803 3.181 1.864.061 0 .136.005.197.005v.54h-.255c-1.749-.002-3.495-.002-5.243-.002h-24.54v-6.17l.017-.18-.144-.033h-.148l-.01.103c-.142.207-.294.44-.447.675a28.66 28.66 0 0 1-.626.936c-.92 1.293-1.89 2.343-2.968 3.204-1.948 1.559-4.18 2.317-6.817 2.317h-.003Zm10.91-26.576s-.135.023-.23.109c-.069.06-.137.122-.205.185-.094.086-.188.175-.285.258-1.117.974-2.342 1.852-3.525 2.7-.314.223-.63.448-.94.675-1.166.847-2.5 1.852-3.58 3.104-1.51 1.744-2.167 3.885-1.951 6.365.138 1.606.557 2.93 1.275 4.046 1.092 1.692 2.574 2.63 4.406 2.788.183.017.363.025.54.025 1.84 0 3.412-.853 4.667-2.536a.318.318 0 0 0 .064-.191c-.008-2.27-.01-4.54-.006-6.81V81.138c0-.108-.058-.424-.069-.487l-.025-.133-.133.022-.003.005Zm54.035 26.228c-2.175 0-4.215-.773-6.236-2.359-1.967-1.543-3.558-3.622-4.869-6.355-1.26-2.63-2.048-5.533-2.344-8.625-.41-4.292-.022-8.147 1.18-11.782 1.109-3.345 2.73-6.053 4.961-8.273 2.217-2.21 4.756-3.589 7.546-4.098.892-.166 1.798-.25 2.705-.252 1.186 0 2.367.149 3.506.448.335.089.643.213.909.374.105.064.313.183.313.183l.208.119V51.679c0-.704-.081-1.316-.25-1.875-.438-1.453-1.444-2.31-2.993-2.542a8.686 8.686 0 0 0-.665-.083l-.155-.008v-.504h13.965c.005 2.453.072 36.325.069 53.138 0 1.169.133 2.049.435 2.855.618 1.65 1.654 2.63 3.17 2.998.144.036.3.056.491.064.136.006.274.008.374.008v.54h-9.489c-1.322 0-4.279-.016-4.952-.019v-6.504l-.272.85c-.463 1.456-1.042 2.569-1.815 3.505-1.294 1.562-2.951 2.448-4.922 2.634a9.348 9.348 0 0 1-.87.041v-.005Zm2.688-40.695c-.912 0-1.771.2-2.416.562-1.101.618-1.844 1.606-2.34 3.11-.36 1.096-.529 2.34-.534 3.91a5965.16 5965.16 0 0 0-.003 17.939v1.287c-.006.961-.009 1.955.05 2.933.066 1.118.221 2.021.485 2.84.451 1.404 1.186 2.363 2.245 2.936.687.371 1.46.545 2.427.545.172 0 .346-.005.521-.016 1.777-.1 3.057-.917 3.808-2.434.624-1.26.923-2.703.937-4.544.019-2.636.016-5.314.013-7.902l-.002-3.055.005-.138V73.52c0-1.285-.108-2.343-.344-3.326-.326-1.37-.853-2.342-1.648-3.062-.743-.67-1.907-1.055-3.198-1.055h-.006ZM.053 106.245v-.528c.063 0 .13-.006.18-.014 1.155-.172 1.987-.626 2.616-1.426.881-1.122 1.308-2.514 1.308-4.259V51.856c0-.498-.022-.884-.075-1.246-.224-1.534-1.056-2.567-2.474-3.068-.55-.194-.87-.244-1.314-.316L0 47.18v-.498h13.566c.005 1.608.047 16.755.047 24.239v.996l.493-.736c1.56-2.381 3.398-4.018 5.618-5.009 1.71-.764 3.425-1.149 5.104-1.149.929 0 1.866.119 2.783.352 3.134.8 5.207 2.935 6.166 6.346.296 1.055.446 2.204.446 3.414.003 8.243.003 16.486 0 24.727 0 1.384.208 2.472.654 3.422.723 1.545 1.793 2.337 3.27 2.42l.155.008v.529H20.156v-.523c.047 0 .1 0 .141-.006 1.82-.097 3.012-1.141 3.644-3.193.21-.689.319-1.434.319-2.22v-8.387c0-4.406 0-8.81-.003-13.213 0-1.93-.03-3.666-.352-5.386a6.697 6.697 0 0 0-.371-1.265c-.469-1.157-1.361-1.855-2.647-2.074a9.01 9.01 0 0 0-1.513-.133c-.54 0-1.072.055-1.577.163-1.81.385-2.963 1.51-3.428 3.334-.2.784-.224 1.575-.224 2.174v7.955c.002 5.62.005 11.241.01 16.862 0 1.371.286 2.52.87 3.511.721 1.221 1.689 1.833 2.958 1.878h.18v.52c-1.289 0-11.251.006-15.885.006H.064l-.011.002Zm126.093-27.459c-2.186 0-3.935-1.459-4.353-3.633-.322-1.67.113-3.142 1.291-4.372.1-.105.205-.207.307-.313.209-.207.422-.423.618-.653.657-.772.788-1.534.394-2.262-.319-.584-1.081-.975-1.898-.975-.097 0-.192.006-.288.017-1.378.16-2.453.894-3.384 2.306-.496.754-.831 1.612-1.034 2.63-.011.053-.025.142-.036.211l-1.009-.005c0-.12 0-.308.028-.496.471-3.115 2.686-5.383 5.778-5.92a6.329 6.329 0 0 1 1.048-.108c.058 0 .116 0 .174.006 3.248 0 5.953 1.98 6.903 5.042.558 1.794.618 3.361.186 4.787-.582 1.933-1.743 3.135-3.45 3.572a5.162 5.162 0 0 1-1.272.163l-.003.003Zm-15.605-16.671c-4.326 0-8.109-1.789-11.235-5.314-2.325-2.62-3.893-5.848-4.797-9.868a27.97 27.97 0 0 1-.64-7.451c.172-3.702 1.006-7.122 2.478-10.168 1.795-3.713 4.148-6.382 7.199-8.157a12.936 12.936 0 0 1 6.596-1.789c.438 0 .887.023 1.336.064 3.566.33 6.654 1.81 9.173 4.4 1.823 1.875 3.195 4.159 4.193 6.986a25.28 25.28 0 0 1 1.341 6.313c.031.38.089 1.42.108 1.805-1.048 0-7.477.006-10.605.006h-10.847v.135c-.047 3.464.221 6.109.87 8.573.596 2.257 1.421 3.948 2.608 5.319 1.46 1.692 3.289 2.62 5.431 2.755.261.017.521.025.776.025 3.769 0 6.693-1.844 8.694-5.477.898-1.633 1.532-3.453 1.884-5.408a4.62 4.62 0 0 0 .05-.365h1.131l-.028.191c-.385 2.467-.948 4.652-1.724 6.678-.873 2.285-1.934 4.165-3.245 5.749-2.355 2.846-5.326 4.49-8.832 4.887-.636.072-1.275.109-1.915.11Zm.751-24.38c1.566 0 3.115 0 4.24.005h.142v-.141a278.742 278.742 0 0 1-.014-4.09v-1.431h-.006c0-.435 0-.87.003-1.304a155.8 155.8 0 0 0-.011-3.345c-.025-1.423-.233-2.642-.635-3.727-.485-1.31-1.219-2.204-2.245-2.733-.75-.385-1.615-.573-2.649-.573h-.185c-1.929.038-3.326.905-4.147 2.578-.628 1.282-.917 2.735-.936 4.71-.028 3.131-.017 9.846-.017 9.912v.138h.139s3.192-.005 6.321-.005v.005ZM40.613 61.958c-2.242 0-4.473-.525-6.632-1.561-3.09-1.484-5.717-3.816-8.036-7.124-2.325-3.32-3.994-7.136-5.097-11.663a43.022 43.022 0 0 1-1.075-6.856 50.47 50.47 0 0 1-.033-7.379c.346-4.97 1.463-9.589 3.323-13.725 1.532-3.406 3.406-6.175 5.734-8.462 2.38-2.34 4.935-3.868 7.812-4.666A15.73 15.73 0 0 1 39.13.05a.963.963 0 0 0 .174-.036L39.358 0h2.693c.304.06.609.112.915.155.338.05.69.105 1.028.18 2.639.595 5.028 1.814 7.303 3.719 2.322 1.944 4.259 4.383 5.924 7.459 2.024 3.738 3.351 7.903 4.058 12.732.407 2.788.532 5.78.38 9.15-.236 5.162-1.317 10.002-3.215 14.39-1.638 3.786-3.692 6.818-6.28 9.268-2.328 2.207-4.794 3.636-7.538 4.367-1.344.36-2.694.54-4.013.54Zm.044-60.782c-.188 0-.376.003-.565.01-3.383.12-6.113 2.08-7.305 5.242-.64 1.7-.953 3.495-.953 5.48-.003 12.335 0 24.674 0 37.01v.279c0 .695 0 1.412.06 2.123.15 1.654.453 2.988.949 4.201.956 2.334 2.552 3.882 4.738 4.599a9.61 9.61 0 0 0 3.038.468c.382 0 .781-.02 1.186-.058 3.364-.324 5.725-2.033 7.017-5.084.687-1.623 1.022-3.455 1.025-5.602V11.938c0-1.786-.247-3.373-.75-4.846-.832-2.425-2.232-4.084-4.28-5.067-1.189-.57-2.55-.847-4.162-.847h.002ZM79.22 60.772c-.588-1.545-1.186-3.085-1.782-4.627l-.679-1.753c-1.638-4.233-3.275-8.467-4.91-12.7-1.777-4.597-3.553-9.19-5.324-13.787-.2-.515-.394-1.03-.59-1.545-.263-.697-.529-1.392-.799-2.085-.31-.795-.745-1.465-1.288-1.988-.524-.504-1.048-.784-1.65-.878a2.252 2.252 0 0 0-.274-.022v-.477h.247l18.457.003v.524h-.236c-.756.011-1.413.108-2.003.299-1.533.493-2.218 1.467-2.153 3.07.019.469.13.953.354 1.526.474 1.221.95 2.44 1.424 3.658l4.883 12.526c.372.956.746 1.91 1.134 2.902l.62 1.584s.996-2.694 1.237-3.353l1.327-3.614c1.677-4.563 3.356-9.126 5.027-13.69.358-.98.469-1.796.344-2.574-.136-.856-.599-1.484-1.374-1.875-.566-.282-1.209-.429-2.02-.456l-.123-.006h-.188v-.524h9.436v.524h-.139a3.412 3.412 0 0 0-.668.072c-1.468.318-2.283 1.379-2.77 2.151-.716 1.136-1.195 2.376-1.627 3.553L82.556 55.973c-.585 1.595-1.173 3.19-1.75 4.788l-1.593.005.006.006Zm47.281-.047.005-.798h.047c1.292 0 1.877-.87 2.242-1.625.4-.828.599-1.789.607-2.932.02-2.578.017-5.198.017-7.731v-22.17c0-.992-.149-1.781-.474-2.484-.496-1.08-1.383-1.728-2.713-1.974-.175-.032-.35-.059-.527-.08a11.625 11.625 0 0 1-.349-.05 3.328 3.328 0 0 0-.163-.023v-.277h14.006v17.627h.008v4.383c-.002 4.051-.005 8.238.008 12.358.006 1.453.436 2.705 1.284 3.721.684.82 1.599 1.288 2.713 1.387l.272.03v.64h-16.983v-.002Zm23.334-27.443c-2.186 0-3.935-1.46-4.353-3.635-.322-1.67.113-3.143 1.291-4.372.103-.106.205-.211.308-.313.207-.208.421-.424.615-.654.657-.772.787-1.534.393-2.262-.318-.584-1.081-.975-1.898-.975-.097 0-.191.006-.288.017-1.377.16-2.453.894-3.381 2.306-.496.754-.832 1.612-1.034 2.63a6.52 6.52 0 0 0-.036.211l-1.009-.005c0-.12 0-.308.028-.496.471-3.115 2.685-5.383 5.778-5.92a6.318 6.318 0 0 1 1.048-.108c.058 0 .116 0 .174.006 3.248 0 5.953 1.98 6.904 5.042.556 1.794.618 3.361.185 4.787-.582 1.933-1.743 3.135-3.45 3.572a5.172 5.172 0 0 1-1.272.163l-.003.006Z"/>
</svg>
