<svg xmlns="http://www.w3.org/2000/svg" fill="none" viewBox="0 0 56 22">
  <path fill="currentColor" d="m17.03 15.984-3.394-8.836h-3.028l-3.366 8.836-3.168-8.836H0l5.742 14.477h2.83l3.564-8.6 3.536 8.6h2.83l5.742-14.477h-4.072l-3.142 8.836Zm13.586-8.836h-3.734v14.477h3.734V7.148ZM38.3 1.357h-3.762v20.268H38.3V1.357ZM28.738 0a2.191 2.191 0 0 0-.883.17 2.264 2.264 0 0 0-1.236 1.28 2.321 2.321 0 0 0-.155.904c0 .621.241 1.216.67 1.655.429.44 1.01.686 1.617.686a2.26 2.26 0 0 0 1.617-.686c.43-.439.67-1.034.67-1.655a2.378 2.378 0 0 0-.169-.904 2.335 2.335 0 0 0-.497-.768 2.273 2.273 0 0 0-.75-.51A2.23 2.23 0 0 0 28.738 0Zm23.528 1.357v7.46a6.45 6.45 0 0 0-2.13-1.515 6.323 6.323 0 0 0-2.542-.533h-.416c-.157.006-.313.02-.468.043a5.911 5.911 0 0 0-3.694 1.93 7.089 7.089 0 0 0-1.386 2.39 9.574 9.574 0 0 0-.508 3.241 9.574 9.574 0 0 0 .508 3.243 6.96 6.96 0 0 0 1.4 2.388 6.057 6.057 0 0 0 2.05 1.488 6.15 6.15 0 0 0 2.49.508h.156c.116 0 .23-.006.344-.017h.04a6.4 6.4 0 0 0 4.154-2.02v1.668H56V1.368l-3.734-.01Zm-.94 15.997a3.82 3.82 0 0 1-1.276.828 3.758 3.758 0 0 1-1.49.26 4.05 4.05 0 0 1-1.538-.288 3.558 3.558 0 0 1-1.228-.819 3.773 3.773 0 0 1-.814-1.287 4.836 4.836 0 0 1 0-3.33c.185-.481.464-.918.82-1.284.35-.357.768-.635 1.228-.819a4.058 4.058 0 0 1 1.538-.288 3.818 3.818 0 0 1 2.766 1.074c.74.717 1.11 1.71 1.11 2.982 0 1.272-.372 2.262-1.116 2.97Z"/>
</svg>
